# xmcd
#
# Track frame offsets: 
#        150
#        77555
#        91700
#        129495
#        155973
#        207621
#        267394
#        308501
#        334791
#
# Disc length: 4787 seconds
#
# Revision: 1
# Processed by: cddbd v1.5.2PL0 Copyright (c) Steve Scherf et al.
# Submitted via: ExactAudioCopy v0.99pb3
#
DISCID=7712b109
DTITLE=Grateful Dead - 77-10 Road Trips Vol. 1 No. 2 [CD2]
DYEAR=1977
DGENRE=Psychedelic Rock
TTITLE0=Playing In The Band (10-14-77)
TTITLE1=Drums (10-16-77)
TTITLE2=The Other One (10-16-77)
TTITLE3=Good Lovin' (10-16-77)
TTITLE4=Terrapin Station (10-16-77)
TTITLE5=Black Peter (10-16-77)
TTITLE6=Around And Around (10-16-77)
TTITLE7=Brokedown Palace (10-14-77)
TTITLE8=Playing In The Band (Reprise) (10-14-77)
EXTD=
EXTT0=
EXTT1=
EXTT2=
EXTT3=
EXTT4=
EXTT5=
EXTT6=
EXTT7=
EXTT8=
PLAYORDER=
